<svg xmlns="http://www.w3.org/2000/svg" viewBox="0 0 64 64" role="img" aria-label="AccessMapSeattle logo">
	<defs>
		<linearGradient id="path" x1="6" y1="8" x2="58" y2="56" gradientUnits="userSpaceOnUse">
			<stop offset="0" stop-color="#7c5ce6" />
			<stop offset="1" stop-color="#5a3fbd" />
		</linearGradient>
		<linearGradient id="pin" x1="20" y1="10" x2="44" y2="46" gradientUnits="userSpaceOnUse">
			<stop offset="0" stop-color="#36d399" />
			<stop offset="1" stop-color="#16a34a" />
		</linearGradient>
	</defs>
	<rect x="6" y="6" width="52" height="52" rx="14" fill="#f0edff" stroke="#d6cff5" stroke-width="2" />
	<path d="M18 40c6-9 12-13 18-13 6 0 10 2 10 6 0 5-7 7-13 7-6 0-11 0-15 0z" fill="url(#path)" opacity="0.25" />
	<path d="M32 12c-7 0-12 5-12 12 0 9 12 24 12 24s12-15 12-24c0-7-5-12-12-12z" fill="url(#pin)" />
	<circle cx="32" cy="24" r="4" fill="#ffffff" />
	<path d="M15 46c5 4 12 6 20 6 8 0 14-2 20-6" fill="none" stroke="#7c5ce6" stroke-width="2" stroke-linecap="round" />
</svg>
